<mxfile host="app.diagrams.net" agent="Mozilla/5.0 (Windows NT 10.0; Win64; x64) AppleWebKit/537.36 (KHTML, like Gecko) Chrome/128.0.0.0 Safari/537.36" version="24.7.10">
  <diagram name="Страница-1" id="umuHSqBc2B9mPuC_vvN_">
    <mxGraphModel dx="1877" dy="1772" grid="1" gridSize="10" guides="1" tooltips="1" connect="1" arrows="1" fold="1" page="1" pageScale="1" pageWidth="827" pageHeight="1169" math="0" shadow="0">
      <root>
        <mxCell id="0" />
        <mxCell id="1" parent="0" />
        <mxCell id="2" value="Start" style="whiteSpace=wrap;strokeWidth=2;" parent="1" vertex="1">
          <mxGeometry y="237" width="50" height="33" as="geometry" />
        </mxCell>
        <mxCell id="3" value="Input N" style="rhombus;strokeWidth=2;whiteSpace=wrap;" parent="1" vertex="1">
          <mxGeometry x="100" y="203" width="101" height="101" as="geometry" />
        </mxCell>
        <mxCell id="4" value="Validate N" style="rhombus;strokeWidth=2;whiteSpace=wrap;" parent="1" vertex="1">
          <mxGeometry x="316" y="192" width="122" height="122" as="geometry" />
        </mxCell>
        <mxCell id="5" value="Generate Random Number" style="rhombus;strokeWidth=2;whiteSpace=wrap;" parent="1" vertex="1">
          <mxGeometry x="536" y="21" width="239" height="239" as="geometry" />
        </mxCell>
        <mxCell id="6" value="Display Error Message" style="whiteSpace=wrap;strokeWidth=2;" parent="1" vertex="1">
          <mxGeometry x="571" y="311" width="170" height="33" as="geometry" />
        </mxCell>
        <mxCell id="7" value="Compare N and Random Number" style="rhombus;strokeWidth=2;whiteSpace=wrap;" parent="1" vertex="1">
          <mxGeometry x="825" width="282" height="282" as="geometry" />
        </mxCell>
        <mxCell id="8" value="Output: N &amp;lt; Random" style="whiteSpace=wrap;strokeWidth=2;" parent="1" vertex="1">
          <mxGeometry x="1262" y="143" width="181" height="33" as="geometry" />
        </mxCell>
        <mxCell id="9" value="" style="curved=1;startArrow=none;endArrow=block;exitX=1;exitY=0.49;entryX=0;entryY=0.5;" parent="1" source="2" target="3" edge="1">
          <mxGeometry relative="1" as="geometry">
            <Array as="points" />
          </mxGeometry>
        </mxCell>
        <mxCell id="10" value="N &amp;lt; 10" style="curved=1;startArrow=none;endArrow=block;exitX=1;exitY=0.5;entryX=0;entryY=0.5;" parent="1" source="3" target="4" edge="1">
          <mxGeometry relative="1" as="geometry">
            <Array as="points" />
          </mxGeometry>
        </mxCell>
        <mxCell id="11" value="Valid" style="curved=1;startArrow=none;endArrow=block;exitX=0.99;exitY=0;entryX=0;entryY=0.5;" parent="1" source="4" target="5" edge="1">
          <mxGeometry relative="1" as="geometry">
            <Array as="points">
              <mxPoint x="487" y="141" />
            </Array>
          </mxGeometry>
        </mxCell>
        <mxCell id="12" value="Invalid" style="curved=1;startArrow=none;endArrow=block;exitX=1;exitY=0.84;entryX=0;entryY=0.49;" parent="1" source="4" target="6" edge="1">
          <mxGeometry relative="1" as="geometry">
            <Array as="points">
              <mxPoint x="487" y="327" />
            </Array>
          </mxGeometry>
        </mxCell>
        <mxCell id="13" value="" style="curved=1;startArrow=none;endArrow=block;exitX=1;exitY=0.5;entryX=0;entryY=0.5;" parent="1" source="5" target="7" edge="1">
          <mxGeometry relative="1" as="geometry">
            <Array as="points" />
          </mxGeometry>
        </mxCell>
        <mxCell id="14" value="N &gt; Random" style="curved=1;startArrow=none;endArrow=block;exitX=1;exitY=0.46;entryX=0.1;entryY=0.01;" parent="1" source="7" target="8" edge="1">
          <mxGeometry relative="1" as="geometry">
            <Array as="points">
              <mxPoint x="1185" y="122" />
            </Array>
          </mxGeometry>
        </mxCell>
        <mxCell id="15" value="N = Random" style="curved=1;startArrow=none;endArrow=block;exitX=1;exitY=0.54;entryX=0;entryY=0.52;" parent="1" source="7" target="8" edge="1">
          <mxGeometry relative="1" as="geometry">
            <Array as="points">
              <mxPoint x="1185" y="160" />
            </Array>
          </mxGeometry>
        </mxCell>
        <mxCell id="16" value="N &amp;lt; Random" style="curved=1;startArrow=none;endArrow=block;exitX=1;exitY=0.63;entryX=0.1;entryY=1.03;" parent="1" source="7" target="8" edge="1">
          <mxGeometry relative="1" as="geometry">
            <Array as="points">
              <mxPoint x="1185" y="199" />
            </Array>
          </mxGeometry>
        </mxCell>
      </root>
    </mxGraphModel>
  </diagram>
</mxfile>
